<svg xmlns="http://www.w3.org/2000/svg" width="126" height="48" viewBox="0 0 126 48" fill="none">
<path fill-rule="evenodd" clip-rule="evenodd" d="M124.696 23.9844C118.268 37.2054 89.82 48 61.3722 48C32.9245 48 14.8869 36.8228 21.3156 23.6018C27.7443 10.4119 53.0056 0 84.6957 0C113.143 0 131.125 10.7946 124.696 23.9844Z" fill="#23262F"/>
<path fill-rule="evenodd" clip-rule="evenodd" d="M83.6397 1.18211C110.938 1.18211 128.175 11.2923 121.994 23.6111C115.814 35.9922 88.5467 46.0713 61.248 46.0713C33.9493 46.0713 16.713 35.9922 22.8932 23.6111C29.0424 11.2923 56.3411 1.18211 83.6397 1.18211Z" fill="#757F8F"/>
<path fill-rule="evenodd" clip-rule="evenodd" d="M79.2918 3.29747C103.951 3.29747 119.51 12.3189 113.889 23.3934C108.299 34.4679 83.6087 43.4893 58.9809 43.4893C34.3531 43.4893 18.7627 34.4368 24.3529 23.3934C27.9865 16.2696 39.4774 10.0168 53.7634 6.4394C54.7882 6.15943 55.8131 5.94167 56.869 5.72391C63.981 4.19961 71.6519 3.32858 79.2918 3.32858V3.29747Z" fill="#23262F"/>
<path fill-rule="evenodd" clip-rule="evenodd" d="M111.584 14.3284C112.811 16.3412 113.038 18.6058 112.066 20.9825C111.156 22.7806 110.112 24.2271 108.559 25.6518C100.494 33.0121 81.5124 38.2725 63.3878 38.2725C42.0147 38.2725 29.3685 30.8749 34.2382 21.5207C37.5829 15.0813 48.9217 9.2267 62.4965 6.33674C64.0928 5.99766 65.717 5.73013 67.363 5.48749C64.1704 5.80479 61.043 6.26519 57.9715 6.92158C42.9185 10.2035 30.1542 15.4981 26.4399 22.8366C21.0547 33.5036 35.1512 41.9681 58.8629 41.9681C78.2887 41.9681 98.5748 36.3686 107.92 28.3769C108.976 27.481 110.212 26.2118 111.181 24.8617C111.581 24.3142 111.929 23.7605 112.224 23.2036C113.898 19.9964 113.578 16.9602 111.584 14.3347V14.3284Z" fill="#0072BC"/>
<path d="M105.755 8.52054L105.752 8.52339H105.758L105.755 8.52054Z" fill="#23262F"/>
<path d="M103.814 13.6876L104.684 11.3732L105.752 8.52365L102.826 9.32625L96.2425 11.1305L95.4226 11.3545L95.1679 12.1664L94.7021 13.6565H92.5778L92.0126 13.5507C91.8138 13.5134 91.1306 13.3921 90.6834 13.3921C89.9007 13.3921 89.2113 13.4916 88.6026 13.6565H80.0155L79.6738 14.7453L78.8229 17.461C78.7111 16.59 78.3695 15.8279 77.826 15.2368L77.3663 14.736H77.2173C76.5433 14.1885 75.6706 13.8152 74.652 13.6441C73.6706 13.4294 72.3693 13.3361 70.3196 13.3361V13.3454C69.0991 13.3454 68.0307 13.4232 67.0463 13.5787C65.9903 13.7218 65.0493 13.9769 64.3195 14.316C63.2915 14.7391 62.4437 15.2772 61.7977 15.915C61.3443 16.3256 60.9188 16.8451 60.4902 17.5046L59.953 16.3536C59.3132 14.9786 57.8597 13.3392 54.5709 13.3392V13.3454C53.0149 13.3454 52.4093 13.4605 51.7385 13.7498L51.7571 13.6876H43.1824L42.8408 14.7764L41.9806 17.5077C41.8315 17.1282 41.6607 16.7953 41.4868 16.5122V16.506L41.4774 16.4998C40.1575 14.4156 37.6948 13.3548 34.1636 13.3517V13.3454C31.235 13.3454 28.6294 14.1325 26.4182 15.6785L26.4119 15.6848L26.4057 15.691C25.8281 16.1047 25.3001 16.5465 24.8187 17.0162V16.3878C24.8187 13.3579 24.0051 11.2238 22.328 9.86753C20.8466 8.6232 18.6851 8.0197 15.7192 8.0197V8.02592C13.0049 8.02592 9.04204 8.91562 6.29975 10.9034C3.63511 12.8601 1.7624 15.6008 0.722007 19.0569C-0.135152 21.81 -0.231427 24.1275 0.445604 25.9318C1.14748 27.845 2.29968 29.22 3.86803 30.0101C5.31526 30.7505 7.24076 31.1113 9.75634 31.1113C11.9862 31.1113 13.4303 30.8811 15.0794 30.2683C16.5795 29.7084 17.9801 28.8715 19.2472 27.7797L19.7876 27.313V27.2041C20.3435 26.6504 20.9336 25.9723 21.474 25.2412C21.6634 26.8868 22.4336 28.0814 23.2038 28.8902L23.2162 28.9027L23.2286 28.9151C24.7442 30.4332 26.6511 31.0802 29.6077 31.0802C32.5642 31.0802 35.2102 30.2839 37.4525 28.716C37.937 28.3707 38.3842 27.9974 38.8004 27.6086L36.5954 34.6172L35.9587 36.6393H44.9527L45.3005 35.5598L46.9465 30.4456C46.9869 30.4643 47.0272 30.483 47.0707 30.5016C47.903 30.8749 48.9062 31.074 49.9745 31.074C52.1298 31.074 54.1547 30.3461 55.9932 28.9089C56.4715 28.5325 56.9156 28.1125 57.3256 27.6521C57.5212 28.38 57.8877 28.94 58.2604 29.3444C59.3722 30.5981 61.5648 31.0429 63.1114 31.0429C64.658 31.0429 66.0742 30.8127 67.3258 30.3616C67.6115 30.2621 67.9034 30.1408 68.2109 29.9977L68.4531 30.7287H74.6644V30.7349H83.6646L84.0031 29.643L85.4628 24.9457C86.2361 22.485 86.941 21.4367 87.3945 20.9918C87.5373 20.8518 87.9845 20.631 88.5808 20.631C88.9349 20.631 89.2641 20.7087 89.5374 20.8581L91.1709 21.7478L91.5188 20.687H92.5219L91.6244 23.5863C91.0188 25.4839 90.8231 26.7157 90.9815 27.677C91.143 28.8031 91.7517 29.7426 92.6989 30.3212C93.5437 30.8376 94.758 31.0771 96.522 31.0771C97.7456 31.0771 98.727 31.1113 99.5127 30.6416C100.003 30.3461 100.469 30.3803 100.876 30.3025L101.802 29.8172L102.075 28.2929L102.82 25.8354L103.659 23.0699L100.892 23.8911C100.739 23.9378 100.6 23.9751 100.475 24.0093L101.51 20.7181H104.653L104.991 19.6231L106.202 15.7034L106.827 13.6876H103.814ZM30.5518 22.7215L30.5642 22.6872L30.5735 22.653C30.822 21.7509 31.1946 21.1038 31.7164 20.6683C32.1015 20.351 32.6139 20.1581 33.0829 20.1581C33.3624 20.1581 33.3903 20.211 33.4152 20.2546L33.4556 20.323L33.4804 20.3572C33.499 20.4288 33.5611 20.7896 33.2785 21.6824C32.968 22.6841 32.5704 23.3872 32.0922 23.7822L31.8251 24.0031C31.4524 24.2426 31.1015 24.3577 30.7505 24.3577C30.4679 24.3577 30.3965 24.2955 30.3654 24.2489H30.3685C30.3344 24.1711 30.207 23.7854 30.5518 22.7215ZM22.3529 20.5314H14.7254L14.2657 21.2345C13.9428 21.7322 13.449 22.4353 12.9241 22.8117L12.9024 22.8272L12.8806 22.8428C12.3278 23.269 11.6228 23.4836 10.7843 23.4836C10.1725 23.4836 9.72839 23.3405 9.59174 23.0979L9.58553 23.0885L9.57932 23.0792C9.57932 23.0792 9.25012 22.4601 10.0265 19.9373C10.5079 18.4378 11.0669 17.3864 11.6818 16.8171L11.7036 16.7953L11.7253 16.7736C12.5173 15.9803 13.4303 15.579 14.4459 15.579C14.7533 15.579 14.9366 15.5852 15.0453 15.5914C15.1105 15.6381 15.1912 15.691 15.2906 15.747C15.4552 15.8403 15.6322 15.9367 15.6974 16.5527L15.8465 17.9432H23.9647C23.3032 18.7396 22.7659 19.6044 22.3529 20.5314Z" fill="#23262F"/>
<path fill-rule="evenodd" clip-rule="evenodd" d="M13.8247 24.0778C13.0173 24.6999 11.9924 25.0421 10.7812 25.0421C9.57 25.0421 8.66936 24.6377 8.23457 23.86C7.76872 23.0512 7.89295 21.5891 8.54513 19.4737C9.10415 17.7317 9.78739 16.4562 10.6259 15.6785C11.7129 14.5898 13.0173 14.0298 14.4459 14.0298C15.8745 14.0298 15.626 14.1542 16.0608 14.4031C16.8372 14.8386 17.1478 15.523 17.241 16.394H23.2659C23.2659 14.4964 22.9243 12.35 21.3404 11.0745C20.1603 10.0791 18.2969 9.58133 15.7192 9.58133C13.1415 9.58133 9.57 10.4524 7.20971 12.1633C4.88047 13.8743 3.17236 16.3007 2.20961 19.5049C1.46425 21.9002 1.34003 23.8911 1.89904 25.3843C2.45806 26.9086 3.32764 27.9974 4.5699 28.6196C5.78111 29.2417 7.52027 29.5528 9.75634 29.5528C11.9924 29.5528 13.2036 29.3039 14.539 28.8062C15.8745 28.3085 17.1167 27.5619 18.2348 26.5975V26.5353C19.446 25.4465 20.9056 23.6111 21.5578 22.0868H15.5639C15.0359 22.8957 14.4769 23.6111 13.8247 24.0778Z" fill="white"/>
<path fill-rule="evenodd" clip-rule="evenodd" d="M40.1606 17.3273C39.1389 15.7128 37.1575 14.9039 34.1574 14.9008C31.5518 14.9008 29.2598 15.5852 27.3033 16.954C25.3467 18.3538 24.0113 20.127 23.3591 22.2424C22.6137 24.5444 22.9553 26.3798 24.3218 27.8108C25.4399 28.9306 26.8995 29.5217 29.6014 29.5217C32.3033 29.5217 34.6015 28.8062 36.5581 27.4375C38.4836 26.0687 39.788 24.2955 40.4712 22.1491C41.0923 20.2515 40.9681 18.6338 40.1606 17.3273ZM34.7568 22.1491C34.3531 23.4556 33.7941 24.3888 33.0798 24.9799V25.011C32.3344 25.6021 31.558 25.9131 30.7505 25.9131C29.9431 25.9131 29.353 25.6021 29.0114 25.011C28.6697 24.3888 28.6697 23.4867 29.0735 22.2424C29.4151 20.998 29.9741 20.0959 30.7195 19.4737C31.4338 18.8827 32.3034 18.6027 33.0798 18.6027C33.8562 18.6027 34.4152 18.8827 34.7568 19.4737C35.1605 20.0337 35.1295 20.9669 34.7568 22.1491Z" fill="white"/>
<path fill-rule="evenodd" clip-rule="evenodd" d="M76.6831 16.3007H76.5899C76.093 15.7096 75.3166 15.3363 74.3538 15.1808C73.3911 14.9631 72.0246 14.9008 70.3165 14.9008C69.2606 14.9008 68.2357 14.963 67.273 15.1186C66.3413 15.243 65.5338 15.4608 64.9437 15.7408C64.1052 16.0829 63.3909 16.5185 62.8629 17.0473C62.3039 17.545 61.807 18.2605 61.3101 19.1627L66.5897 19.6915C67.0245 19.0693 67.4282 18.6649 67.863 18.4472C68.4221 18.1983 69.3537 18.0428 70.0991 18.0428C70.8445 18.0428 71.3103 18.1672 71.5277 18.4472C71.714 18.7271 71.714 19.1938 71.5277 19.847C70.7513 20.0648 70.0059 20.2826 69.3227 20.4692C68.6084 20.5936 67.1487 20.9047 64.8816 21.3091C62.9872 21.6513 61.5896 22.1491 60.72 22.8334C59.8505 23.5178 59.2293 24.3888 58.9188 25.4465C58.5771 26.5975 58.7324 27.5619 59.4157 28.3085C60.0989 29.0862 61.776 29.4906 63.1114 29.4906C64.4468 29.4906 65.6891 29.3039 66.8071 28.8995C67.6146 28.6196 68.5152 28.1218 69.478 27.4686C69.4159 27.8419 69.4159 28.1218 69.4159 28.3396C69.4159 28.5573 69.4469 28.8062 69.5711 29.1795H74.9129C74.7886 28.5885 74.7886 28.1218 74.7886 27.7485C74.8197 27.4063 74.9439 26.8775 75.1303 26.2242L77.0558 20.0337C77.3042 19.3804 77.3663 18.696 77.3042 17.9494C77.2732 17.2651 77.0558 16.7051 76.6831 16.3007ZM70.4718 23.3934C70.2233 24.0778 69.9749 24.6377 69.6022 25.0421L69.6643 25.011C69.2916 25.4465 68.7947 25.7887 68.1736 26.0687C67.5525 26.3487 66.8692 26.5042 66.2481 26.5042C65.627 26.5042 65.2232 26.3798 65.0058 26.0998C64.7574 25.8198 64.6953 25.4776 64.8506 25.0732C64.9437 24.731 65.2232 24.3888 65.627 24.1089C65.9997 23.8289 66.8382 23.5489 68.0804 23.2689C69.0121 23.0512 69.8817 22.8334 70.7513 22.5535L70.4718 23.3934Z" fill="white"/>
<path fill-rule="evenodd" clip-rule="evenodd" d="M85.7826 17.4828L86.4969 15.2119H81.1552L76.7762 29.1795H82.5217L83.9814 24.4822C84.6957 22.2113 85.4627 20.7087 86.3106 19.8781C87.1584 19.0476 88.9007 18.7365 90.2796 19.4893L91.7299 15.0781C91.7299 15.0781 91.0219 14.9475 90.6833 14.9475C87.8168 14.9475 86.6212 16.5185 85.7826 17.4828Z" fill="white"/>
<path fill-rule="evenodd" clip-rule="evenodd" d="M100.379 19.1627H103.516L104.727 15.243H101.621L101.59 15.2119L103.236 9.89241L96.6524 12.6299L95.8449 15.2119H93.0499L91.8387 19.1316H94.6337L93.112 24.0467C92.6151 25.6021 92.3977 26.722 92.5219 27.4375C92.6151 28.1218 92.9567 28.6507 93.5157 28.9929C94.0747 29.3351 95.0685 29.5217 96.5282 29.5217C97.9878 29.5217 99.1059 29.3662 100.597 29.0862L101.342 25.3843C100.503 25.6332 99.8823 25.7576 99.4785 25.7576C99.0748 25.7576 98.7332 25.571 98.64 25.291C98.5779 25.1043 98.64 24.6999 98.8264 24.1089L100.379 19.1627Z" fill="white"/>
<path fill-rule="evenodd" clip-rule="evenodd" d="M58.5461 17.0162C57.8939 15.6163 56.5585 14.9008 54.5709 14.9008C51.7168 14.9008 50.0677 16.394 49.0428 17.2962L49.6639 15.243H44.3222L38.0768 35.0839H43.8222L46.1545 27.8419C46.5583 28.4018 47.0862 28.8062 47.7074 29.0862C48.3285 29.3662 49.1049 29.5217 49.9745 29.5217C51.7758 29.5217 53.4839 28.8995 55.0367 27.6863C56.6206 26.442 57.7697 24.6688 58.484 22.3668C59.5585 18.7209 58.5461 17.0162 58.5461 17.0162ZM52.8627 22.1179C52.4901 23.3623 51.9932 24.2022 51.372 24.731C50.7509 25.2599 50.1298 25.5087 49.4776 25.5087C48.8254 25.5087 48.1732 25.2288 47.8316 24.6999C47.49 24.1711 47.521 23.3312 47.8316 22.2424C48.2043 21.0603 48.7012 20.1581 49.3844 19.6604C50.0366 19.1316 50.7199 18.8516 51.4652 18.8516C52.2106 18.8516 52.6143 19.1004 52.8938 19.6293C53.2044 20.1581 53.1733 20.998 52.8317 22.1179H52.8627Z" fill="white"/>
</svg>